Coordinates
version=1
nRows=16
nColumns=42
inDegrees=yes

Units are S.I. units (second, meters, Newtons, ...)
If the header above contains a line with 'inDegrees', this indicates whether rotational values are in degrees (yes) or radians (no).

endheader
time	pelvis_tilt	pelvis_list	pelvis_rotation	pelvis_tx	pelvis_ty	pelvis_tz	hip_flexion_r	hip_adduction_r	hip_rotation_r	knee_angle_r	knee_adduction_r	knee_angle_r_beta	ankle_angle_r	subtalar_angle_r	mtp_angle_r	hip_flexion_l	hip_adduction_l	hip_rotation_l	knee_angle_l	knee_adduction_l	knee_angle_l_beta	ankle_angle_l	subtalar_angle_l	mtp_angle_l	lumbar_extension	lumbar_bending	lumbar_rotation	arm_flex_r	arm_add_r	arm_rot_r	elbow_flex_r	pro_sup_r	wrist_flex_r	wrist_dev_r	arm_flex_l	arm_add_l	arm_rot_l	elbow_flex_l	pro_sup_l	wrist_flex_l	wrist_dev_l
      1.04000000	     11.73893653	      3.29462250	      8.61142969	     -1.61794595	      0.91228676	      0.00384087	     10.88587983	    -10.34511359	    -34.16428200	     26.44664941	      0.07128797	      0.46158111	     11.65265843	     37.18762108	     -7.93559794	    -17.26597309	      7.12253923	    -10.37024545	     18.63615329	     -7.72980881	      0.32526223	     22.24630600	     11.37786046	     -7.93559794	    -34.37484310	     -5.57337255	    -11.47066025	    -20.93786498	    -10.81788753	      9.34691853	     36.76961354	     90.00000001	      0.00000000	      0.00000000	     29.66130061	    -12.33062339	     -0.10464622	     39.51554856	     90.00000001	      0.00000000	      0.00000000
      1.05000000	     11.88066712	      3.16817400	      8.63856925	     -1.60926755	      0.91181396	      0.00419371	     10.24805583	    -10.05274254	    -34.94430800	     24.32476616	      0.91159365	      0.42454726	     10.02444761	     37.65486584	     -7.92782909	    -18.06066116	      6.72943276	    -10.25603102	     18.60378958	     -7.47591702	      0.32469738	     22.23447390	     11.22239380	     -7.92782909	    -34.34670806	     -5.39138709	    -11.26917903	    -21.15517423	    -10.72842921	      8.99793325	     36.68186983	     90.00000001	      0.00000000	      0.00000000	     29.81607448	    -12.21065094	      0.23069126	     39.11411122	     90.00000001	      0.00000000	      0.00000000
      1.06000000	     11.83953075	      3.20440310	      8.65207969	     -1.60070978	      0.91106123	      0.00440411	      9.89609105	     -9.98530758	    -35.61543739	     22.60758425	      1.57079837	      0.39457678	      9.19644270	     37.94087621	     -7.92277426	    -18.65111756	      6.67610969	    -10.12919157	     18.54127412	     -7.51805120	      0.32360628	     22.18044084	     11.23978379	     -7.92277426	    -34.17446903	     -5.37129109	    -11.20354568	    -21.26367684	    -10.66655973	      8.78622829	     36.58706441	     90.00000001	      0.00000000	      0.00000000	     29.88034072	    -12.12862480	      0.44114191	     38.72761266	     90.00000001	      0.00000000	      0.00000000
      1.07000000	     11.94817001	      3.12538553	      8.65441818	     -1.59172682	      0.91059756	      0.00475915	      9.22098334	     -9.72776914	    -36.23695114	     20.76761312	      2.28393335	      0.36246323	      7.92622468	     38.12906979	     -7.91625787	    -19.47496060	      6.39692830	    -10.06768318	     18.39887758	     -7.39371935	      0.32112099	     22.10577493	     11.23991892	     -7.91625787	    -34.09317073	     -5.21720881	    -11.01943304	    -21.33938935	    -10.60155245	      8.49095137	     36.41957200	     90.00000001	      0.00000000	      0.00000000	     29.93235932	    -12.04970248	      0.66347860	     38.28924175	     90.00000001	      0.00000000	      0.00000000
      1.08000000	     11.97465282	      3.06801881	      8.63438135	     -1.58272705	      0.91004612	      0.00515208	      8.71264823	     -9.51183099	    -36.78937403	     19.30915634	      2.82636532	      0.33700835	      7.08239153	     38.23944711	     -7.91060926	    -20.19582551	      6.19664821	    -10.04306346	     18.24945382	     -7.35412610	      0.31851306	     21.99260784	     11.26896622	     -7.91060926	    -33.94093609	     -5.08209288	    -10.86889658	    -21.31221133	    -10.54702407	      8.26505020	     36.25240341	     90.00000001	      0.00000000	      0.00000000	     29.87205954	    -11.99020245	      0.80433365	     37.91412908	     90.00000001	      0.00000000	      0.00000000
      1.09000000	     12.14068528	      2.91923939	      8.60823613	     -1.57344753	      0.90979004	      0.00574734	      8.00739663	     -9.13700500	    -37.20954259	     17.98273882	      3.32186801	      0.31385800	      6.05850500	     38.27864363	     -7.90288920	    -21.08700686	      5.79873348	    -10.01895840	     18.09876714	     -7.16282974	      0.31588308	     21.85781094	     11.26824165	     -7.90288920	    -33.90345308	     -4.85207200	    -10.62069891	    -21.21632835	    -10.49125531	      7.99375802	     36.02456501	     90.00000001	      0.00000000	      0.00000000	     29.78961973	    -11.90246809	      0.91350928	     37.57137561	     90.00000001	      0.00000000	      0.00000000
      1.10000000	     11.98040498	      2.96696203	      8.40393006	     -1.56440462	      0.90889914	      0.00640349	      8.03687896	     -9.16723869	    -37.48717734	     17.75608927	      3.49355252	      0.30990222	      6.05584752	     38.18319522	     -7.90222091	    -21.51224472	      5.82834564	    -10.02619419	     18.20750629	     -7.18923078	      0.31778093	     21.83429601	     11.26720338	     -7.90222091	    -33.57461770	     -4.90868867	    -10.41657075	    -21.08678018	    -10.53667331	      7.96752608	     36.02175549	     90.00000001	      0.00000000	      0.00000000	     29.51032376	    -11.89447771	      0.92034031	     37.45315040	     90.00000001	      0.00000000	      0.00000000
      1.11000000	     12.26014068	      2.66035882	      8.55628222	     -1.55470599	      0.90907436	      0.00692693	      7.11896569	     -8.58182691	    -37.84419147	     16.75414425	      3.80910422	      0.29241498	      5.07659780	     38.38580388	     -7.89818384	    -22.46401021	      5.15412161	     -9.99185241	     18.13711831	     -7.01269362	      0.31655243	     21.37623015	     11.19828249	     -7.89818384	    -33.61775435	     -4.39993723	    -10.22663885	    -20.73212621	    -10.44168372	      7.78822819	     35.37607377	     90.00000001	      0.00000000	      0.00000000	     29.36873608	    -11.81989425	      0.98389215	     36.94873264	     90.00000001	      0.00000000	      0.00000000
      1.12000000	     12.11553855	      2.69118278	      8.45680663	     -1.54535865	      0.90847270	      0.00759687	      7.06180000	     -8.53600561	    -37.67611566	     16.77037971	      3.81784612	      0.29269834	      5.01603976	     38.15121022	     -7.89689899	    -22.83619372	      5.10668535	     -9.88424119	     18.38224869	     -7.06344689	      0.32083076	     21.29047116	     11.21353479	     -7.89689899	    -33.30318930	     -4.38844766	    -10.05094568	    -20.52791180	    -10.43569244	      7.76053331	     35.43895214	     90.00000001	      0.00000000	      0.00000000	     29.00935356	    -11.79227941	      0.98120220	     36.86028749	     90.00000001	      0.00000000	      0.00000000
      1.13000000	     12.72184804	      2.15164141	      8.55503984	     -1.53510506	      0.90938770	      0.00868452	      5.82589647	     -7.45944942	    -37.51148764	     16.02514838	      3.77636714	      0.27969160	      3.97799019	     38.15756213	     -7.88596221	    -24.04102472	      3.99697727	     -9.69926786	     18.61326406	     -6.55954933	      0.32486274	     20.65588381	     10.72162166	     -7.88596221	    -33.64299049	     -3.63073390	     -9.68927904	    -20.08889270	    -10.33268480	      7.28904465	     34.92692219	     90.00000001	      0.00000000	      0.00000000	     28.65003274	    -11.74922286	      0.76584186	     36.72626309	     90.00000001	      0.00000000	      0.00000000
      1.14000000	     12.95728397	      2.00367332	      8.52993922	     -1.52514573	      0.90970888	      0.00951995	      5.32023937	     -7.12320530	    -37.15966423	     16.41254388	      3.64109824	      0.28645293	      3.87334331	     38.01535284	     -7.88209667	    -24.68082461	      3.53329877	     -9.61290773	     19.17701723	     -6.40895397	      0.33470209	     20.04025135	     10.57376319	     -7.88209667	    -33.67361784	     -3.34349808	     -9.47444691	    -19.63992197	    -10.31289975	      7.23850369	     34.63363138	     90.00000001	      0.00000000	      0.00000000	     28.20494954	    -11.75859054	      0.66916482	     36.62924191	     90.00000001	      0.00000000	      0.00000000
      1.15000000	     13.30289138	      1.76690639	      8.50870870	     -1.51501239	      0.91039055	      0.01058648	      4.68076261	     -6.58473156	    -36.55323577	     16.81546726	      3.40363903	      0.29348527	      3.86817139	     37.80827671	     -7.87721979	    -25.28889880	      2.87616543	     -9.62666906	     20.02872053	     -6.17958555	      0.34956712	     19.11866360	     10.24860784	     -7.87721979	    -33.81808232	     -2.96517061	     -9.22391794	    -19.08310673	    -10.24970395	      7.14736432	     34.24071955	     90.00000001	      0.00000000	      0.00000000	     27.67356285	    -11.78666417	      0.45187351	     36.66635149	     90.00000001	      0.00000000	      0.00000000
      1.16000000	     13.64697064	      1.69094681	      8.45771043	     -1.50491012	      0.91122880	      0.01154147	      4.05982833	     -6.25189241	    -35.69251033	     17.40081102	      3.17453539	      0.30370144	      3.81046303	     37.76342347	     -7.87534845	    -25.84405128	      2.48668663	     -9.33751387	     20.96900141	     -6.12017505	      0.36597812	     18.39013096	     10.22987007	     -7.87534845	    -34.00732858	     -2.73806486	     -9.00643638	    -18.54925142	    -10.22277983	      7.10362418	     34.11541135	     90.00000001	      0.00000000	      0.00000000	     27.14933999	    -11.79418443	      0.32063759	     36.62718589	     90.00000001	      0.00000000	      0.00000000
      1.17000000	     14.09408881	      1.44076769	      8.32105050	     -1.49444304	      0.91235457	      0.01301609	      3.23330797	     -5.60102878	    -34.56777918	     17.79905766	      3.02643557	      0.31065216	      4.14620781	     37.28152012	     -7.87067522	    -26.16445423	      1.70464420	     -9.70854477	     22.64040463	     -5.85477542	      0.39514960	     16.74125329	      9.65642741	     -7.87067522	    -34.25055516	     -2.40805551	     -8.70143443	    -17.85577682	    -10.16795304	      6.96864554	     33.67586861	     90.00000001	      0.00000000	      0.00000000	     26.40422351	    -11.85068648	     -0.07810461	     36.91874390	     90.00000001	      0.00000000	      0.00000000
      1.18000000	     14.51854106	      1.21716583	      8.12062490	     -1.48415992	      0.91358751	      0.01463654	      2.40541050	     -4.92115088	    -32.98860950	     18.06232121	      2.92008106	      0.31524698	      4.46560942	     36.53772208	     -7.86280172	    -26.26298611	      1.00696505	     -9.94435568	     24.66337066	     -5.69562037	      0.43045702	     15.25781194	      9.03810058	     -7.86280172	    -34.51515195	     -2.14021589	     -8.32133328	    -17.12762302	    -10.07654725	      6.75698516	     33.39242099	     90.00000001	      0.00000000	      0.00000000	     25.67302454	    -11.85369946	     -0.56932471	     37.22194264	     90.00000001	      0.00000000	      0.00000000
      1.19000000	     15.10618260	      1.29067109	      7.87386485	     -1.47386846	      0.91526608	      0.01614238	      1.37152910	     -4.71699811	    -31.95539706	     18.63679147	      2.87496446	      0.32527337	      4.58707109	     36.44775382	     -7.86058550	    -26.51969911	      0.62021340	     -9.64782551	     26.68769547	     -5.42670947	      0.46578816	     13.73307570	      9.06144697	     -7.86058550	    -35.01858479	     -2.17427858	     -7.97957931	    -16.47403017	    -10.00931665	      6.70456371	     33.35636676	     90.00000001	      0.00000000	      0.00000000	     25.06943137	    -11.89670166	     -0.78706897	     37.32036233	     90.00000001	      0.00000000	      0.00000000
